<svg width="245" height="129" viewBox="0 0 245 129" fill="none" xmlns="http://www.w3.org/2000/svg">
<path d="M80.8574 93.078C78.0106 96.5014 74.2833 99.4437 70.0791 99.8376C65.8714 100.186 62.8469 96.5014 58.6845 96.4142C54.5221 96.3271 51.5884 100.099 47.3389 99.7051C43.1313 99.353 39.4073 96.3689 36.6022 92.9908C25.7785 80.0852 18.0245 44.2722 41.9932 39.6635C42.5048 39.5659 43.0058 39.5136 43.5035 39.4823C43.0893 39.2069 42.6682 38.9524 42.2611 38.6456C37.1242 34.7551 34.622 28.5707 33.6719 21.9958C40.1487 21.3056 47.0118 22.1283 52.0617 25.9735C56.861 29.6967 59.4258 34.6784 60.5325 40.6815C61.1381 38.6072 61.7819 36.5295 62.5093 34.4971C62.8538 33.5001 64.4097 28.6997 65.5303 28.6125C66.9155 28.5289 70.6254 31.9452 69.6753 33.2839C68.8122 34.5389 67.0859 35.9229 66.1776 37.0036C65.1857 38.3005 64.3679 39.7716 63.7624 41.5007C63.738 41.5705 63.7241 41.6437 63.6997 41.7134C67.4862 40.6431 71.064 38.9071 75.4701 39.7507C99.4353 44.4047 91.6359 80.1758 80.8574 93.078ZM113.485 71.1363L114.647 7.75152L0 3.14635L1.41301 127.427L112.535 122.919L113.353 78.2166C106.027 77.2266 99.9294 73.9322 96.8076 71.8231C103.069 72.6214 108.519 72.1264 113.485 71.1363Z" fill="#4DBE54"/>
<path d="M124.08 69.2672C137.153 65.3929 146.322 57.4048 152.672 57.99C162.603 58.903 157.667 70.4975 166.341 69.9934C174.224 69.5316 200.778 53.8372 215.078 53.8372C229.235 53.8372 224.103 70.5257 243.429 72.3659L241.545 0L116.218 8.41824L117.768 71.0404C119.949 70.4869 122.042 69.87 124.08 69.2672Z" fill="#244B91"/>
<path d="M210.393 86.5609C205.499 82.9795 189.453 85.587 178.656 88.9206C178.656 88.9206 198.766 77.6005 210.414 78.885C222.066 80.1661 215.566 88.6134 235.125 89.7863C222.715 94.6522 215.284 90.1423 210.393 86.5609ZM233.156 81.4401C225.218 80.6303 224.087 75.9389 220.474 71.9561C216.861 67.9733 208.613 68.5178 196.277 72.4238C183.941 76.3298 175.908 81.1155 166.756 82.7421C157.6 84.3688 153.261 80.3929 149.446 75.6701C147.749 73.5688 144.374 73.1988 140.391 73.9492C135.409 74.8882 129.43 77.4085 123.991 78.5569C121.879 79.0037 119.803 79.1817 117.788 79.1678L118.867 122.225L245 129L243.726 80.6303C240.49 81.4716 236.94 81.8276 233.156 81.4401Z" fill="#244B91"/>
</svg>
