<svg width="253" height="206" viewBox="0 0 253 206" fill="none" xmlns="http://www.w3.org/2000/svg">
<path d="M83.6763 143.263C80.7336 146.796 76.8809 149.832 72.5352 150.239C68.186 150.598 65.0596 146.796 60.7572 146.706C56.4547 146.616 53.4222 150.508 49.0298 150.102C44.6806 149.738 40.8313 146.659 37.9318 143.173C26.7439 129.856 18.7289 92.8996 43.5042 88.1438C44.033 88.0431 44.5509 87.9891 45.0653 87.9568C44.6372 87.6726 44.2019 87.41 43.781 87.0934C38.4713 83.0787 35.8849 76.6969 34.9028 69.9122C41.5976 69.1999 48.6916 70.0489 53.9115 74.0168C58.8723 77.8589 61.5234 82.9996 62.6674 89.1943C63.2933 87.0538 63.9588 84.9098 64.7107 82.8125C65.0668 81.7836 66.675 76.83 67.8334 76.7401C69.2651 76.6538 73.0999 80.1792 72.1178 81.5606C71.2257 82.8556 69.4413 84.2838 68.5024 85.399C67.4771 86.7372 66.6319 88.2554 66.0059 90.0397C65.9807 90.1116 65.9663 90.1871 65.9411 90.2591C69.8551 89.1547 73.5533 87.3632 78.1076 88.2338C102.879 93.0363 94.8174 129.949 83.6763 143.263ZM117.402 120.621L118.603 55.2133L0.0978194 50.4611L1.55838 178.708L116.42 174.057L117.265 127.927C109.693 126.906 103.39 123.506 100.163 121.33C106.635 122.154 112.268 121.643 117.402 120.621Z" fill="#4DBE54"/>
<path d="M127.727 117.951C141.228 113.998 150.696 105.846 157.254 106.443C167.51 107.375 162.413 119.207 171.37 118.692C179.511 118.221 206.934 102.205 221.702 102.205C236.322 102.205 231.023 119.235 250.981 121.113L249.035 47.2659L119.608 55.8565L121.208 119.761C123.46 119.196 125.622 118.566 127.727 117.951Z" fill="#244B91"/>
<path d="M216.858 135.843C211.814 132.152 195.277 134.839 184.15 138.275C184.15 138.275 204.875 126.609 216.879 127.932C228.887 129.253 222.189 137.958 242.345 139.167C229.556 144.182 221.897 139.534 216.858 135.843ZM240.316 130.566C232.136 129.731 230.97 124.896 227.247 120.792C223.524 116.687 215.023 117.248 202.31 121.274C189.596 125.299 181.319 130.231 171.886 131.908C162.45 133.584 157.979 129.487 154.047 124.619C152.299 122.454 148.82 122.072 144.715 122.846C139.582 123.813 133.419 126.411 127.815 127.594C125.638 128.055 123.498 128.238 121.422 128.224L122.534 172.598L252.522 179.58L251.209 129.731C247.874 130.598 244.216 130.965 240.316 130.566Z" fill="#244B91"/>
<path d="M29.5527 28.9235L35.4955 33.9562C31.801 38.345 26.2323 41.1294 19.9152 41.1294C8.94317 41.1294 0 32.51 0 21.8581C0 11.2027 8.94317 2.53291 19.9152 2.53291C26.2323 2.53291 31.801 5.36767 35.4955 9.7601L29.5527 14.7893C27.4087 11.7387 23.876 9.81406 19.9152 9.81406C13.332 9.81406 7.92508 14.631 7.92508 21.8581C7.92508 28.9774 13.332 33.9022 19.9152 33.9022C23.876 33.9022 27.4087 31.974 29.5527 28.9235Z" fill="#244B91"/>
<path d="M61.8846 20.3048C60.0644 18.7507 57.496 17.7902 54.7116 17.7902C49.409 17.7902 46.092 21.751 46.092 26.0858C46.092 30.4782 49.463 34.439 54.7116 34.439C57.5463 34.439 60.0644 33.5288 61.8846 31.9748V20.3048ZM69.3278 11.6315V40.7021H61.8846V38.558C59.4744 40.1661 56.5858 41.1301 53.3733 41.1301C44.2719 41.1301 38.919 33.795 38.919 26.0858C38.919 18.3226 44.2719 11.0415 53.3733 11.0415C56.4239 11.0415 59.4204 12.0092 61.8846 13.4518V11.6315H69.3278Z" fill="#244B91"/>
<path d="M76.1216 40.6999H83.6147V0.337103H76.1216V40.6999Z" fill="#244B91"/>
<path d="M119.43 11.6325L105.512 40.6995H101.979L88.007 11.6325H95.8205L103.746 28.1194L111.613 11.6325H119.43Z" fill="#244B91"/>
<path d="M143.785 20.3048C141.965 18.7507 139.396 17.7902 136.612 17.7902C131.309 17.7902 127.992 21.751 127.992 26.0858C127.992 30.4782 131.363 34.439 136.612 34.439C139.446 34.439 141.965 33.5288 143.785 31.9748V20.3048ZM151.224 11.6315V40.7021H143.785V38.558C141.375 40.1661 138.486 41.1301 135.274 41.1301C126.172 41.1301 120.819 33.795 120.819 26.0858C120.819 18.3226 126.172 11.0415 135.274 11.0415C138.324 11.0415 141.321 12.0092 143.785 13.4518V11.6315H151.224Z" fill="#244B91"/>
<path d="M179.758 31.9212V20.2512C177.992 18.7511 175.474 17.787 172.639 17.787C167.66 17.787 163.966 21.3736 163.966 26.1401C163.966 31.065 167.66 34.4357 172.639 34.4357C175.42 34.4357 177.992 33.4752 179.758 31.9212ZM187.252 0.335999V40.7024H179.758V38.9325C177.402 40.3247 174.352 41.1844 171.301 41.1844C163.214 41.1844 156.577 35.0797 156.577 26.1401C156.577 17.0387 163.214 11.0958 171.301 11.0958C174.406 11.0958 177.348 11.952 179.758 13.2902V0.335999H187.252Z" fill="#244B91"/>
<path d="M216.907 26.1394C216.907 21.5347 213.105 17.7899 208.342 17.7899C203.629 17.7899 199.776 21.5347 199.776 26.1394C199.776 30.6901 203.629 34.4386 208.342 34.4386C213.105 34.4386 216.907 30.6901 216.907 26.1394ZM224.242 26.1394C224.242 34.4386 217.123 41.1298 208.342 41.1298C199.564 41.1298 192.441 34.4386 192.441 26.1394C192.441 17.7899 199.564 11.0951 208.342 11.0951C217.123 11.0951 224.242 17.7899 224.242 26.1394Z" fill="#244B91"/>
<path d="M230.61 32.8317C234.196 34.3857 236.927 35.188 240.567 35.188C243.992 35.188 245.33 33.9037 245.33 32.4036C245.33 30.7452 243.672 29.9933 239.175 29.0328C232.912 27.6406 228.361 25.6045 228.361 19.9818C228.361 14.7368 232.696 11.0962 239.441 11.0962C243.992 11.0962 247.633 12.1682 250.791 13.4525L248.327 18.9133C245.492 17.8413 242.172 17.0391 239.283 17.0391C236.445 17.0391 234.999 18.0572 234.999 19.6076C234.999 21.2157 236.765 21.9639 241.424 22.928C248.169 24.3202 252.076 26.6729 252.076 31.9755C252.076 37.4903 247.849 41.1273 240.406 41.1273C235.373 41.1273 232.106 40.433 227.825 38.3465L230.61 32.8317Z" fill="#244B91"/>
<path d="M11.6753 205.999H0.00175327V188.771H2.67828V203.377H11.6753V205.999Z" fill="#244B91"/>
<path d="M29.5396 205.999H17.15V188.771H29.0826V191.415H19.8265V196.304H27.7409V198.923H19.8265V203.355H29.5396V205.999Z" fill="#244B91"/>
<path d="M49.2229 203.356H52.6224C55.673 203.09 58.1266 200.471 58.1266 197.395C58.1266 194.096 55.4608 191.416 52.1908 191.416H49.2229V203.356ZM52.716 206H46.5501V188.772H52.1908C56.9501 188.772 60.8246 192.639 60.8246 197.395C60.8246 201.924 57.2776 205.701 52.7485 205.996L52.716 206Z" fill="#244B91"/>
<path d="M78.9911 205.999H66.6018V188.771H78.5344V191.415H69.2783V196.304H77.1924V198.923H69.2783V203.355H78.9911V205.999Z" fill="#244B91"/>
<path d="M87.358 198.088H90.8656C94.9847 198.088 94.9845 195.487 94.9845 194.631C94.9845 192.498 93.7722 191.415 91.3871 191.415H87.358V198.088ZM87.358 205.999H84.6852V188.771H91.4519C95.3659 188.771 97.7006 190.954 97.7006 194.609C97.7006 198.487 95.2255 200.71 90.9087 200.71H87.358V205.999Z" fill="#244B91"/>
<path d="M105.636 198.98H110.91L108.259 193.012L105.636 198.98ZM116.9 205.999H114L112.025 201.56H104.507L102.553 205.999H99.6249L107.366 188.771H109.183L116.9 205.999Z" fill="#244B91"/>
<path d="M124.127 198.088H127.678C131.793 198.088 131.793 195.487 131.793 194.631C131.793 192.498 130.592 191.415 128.221 191.415H124.127V198.088ZM135.855 205.999H132.516L128.62 200.682C128.314 200.7 128.005 200.71 127.699 200.71H124.127V205.999H121.454V188.771H128.264C132.178 188.771 134.513 190.954 134.513 194.609C134.513 197.181 133.419 199.052 131.405 199.995L135.855 205.999Z" fill="#244B91"/>
<path d="M147.694 205.999H145.018V191.415H139.467V188.771H153.267V191.415H147.694V205.999Z" fill="#244B91"/>
<path d="M171.325 205.999H158.935V188.771H170.868V191.415H161.612V196.304H169.526V198.923H161.612V203.355H171.325V205.999Z" fill="#244B91"/>
<path d="M193.698 205.999H191.025V194.941L185.37 204.276L179.69 194.93V205.999H177.017V188.771H179.017L185.37 199.186L191.716 188.771H193.698V205.999Z" fill="#244B91"/>
<path d="M212.689 205.999H200.3V188.771H212.232V191.415H202.976V196.304H210.891V198.923H202.976V203.355H212.689V205.999Z" fill="#244B91"/>
<path d="M230.884 205.999L221.056 193.898V205.999H218.383V188.771H220.304L230.111 200.866V188.771H232.787V205.999H230.884Z" fill="#244B91"/>
<path d="M246.77 205.999H244.093V191.415H238.542V188.771H252.342V191.415H246.77V205.999Z" fill="#244B91"/>
<path d="M73.1778 187.287H70.8861L72.9799 184.197H75.8686L73.1778 187.287Z" fill="#244B91"/>
</svg>
