<svg width="481" height="85" viewBox="0 0 481 85" fill="none" xmlns="http://www.w3.org/2000/svg">
<path d="M51.4847 61.1659C49.672 63.342 47.2987 65.2123 44.6218 65.4627C41.9426 65.6843 40.0168 63.342 37.3664 63.2866C34.7161 63.2312 32.8481 65.6289 30.1423 65.3785C27.4632 65.1546 25.092 63.2578 23.3059 61.1105C16.4141 52.9069 11.4768 30.142 26.7385 27.2125C27.0643 27.1504 27.3833 27.1172 27.7002 27.0973C27.4365 26.9222 27.1684 26.7604 26.9091 26.5654C23.6382 24.0924 22.045 20.1612 21.4401 15.9819C25.5641 15.5431 29.934 16.0661 33.1495 18.5103C36.2054 20.877 37.8385 24.0436 38.5432 27.8596C38.9287 26.541 39.3387 25.2203 39.8018 23.9284C40.0212 23.2946 41.0119 20.2432 41.7254 20.1878C42.6074 20.1346 44.9696 22.3063 44.3647 23.1572C43.8151 23.955 42.7159 24.8347 42.1376 25.5217C41.506 26.346 40.9853 27.2812 40.5997 28.3803C40.5842 28.4246 40.5753 28.4712 40.5598 28.5155C42.9708 27.8352 45.2489 26.7316 48.0544 27.2679C63.3139 30.2262 58.3477 52.9645 51.4847 61.1659ZM72.2599 47.2184L73 6.92733L0 4.00001L0.899715 83L71.6549 80.1347L72.1756 51.7191C67.5109 51.0898 63.6285 48.9957 61.6408 47.655C65.6274 48.1624 69.0976 47.8478 72.2599 47.2184Z" fill="#4DBE54"/>
<path d="M79.006 46.0303C87.3302 43.5676 93.1681 38.4899 97.2115 38.8618C103.535 39.4422 100.392 46.8124 105.915 46.4919C110.934 46.1984 127.843 36.2221 136.948 36.2221C145.962 36.2221 142.694 46.8303 155 48L153.8 2.00001L74 7.35114L74.9869 47.1575C76.3754 46.8056 77.7084 46.4135 79.006 46.0303Z" fill="#244B91"/>
<path d="M133.965 57.0232C130.848 54.7467 120.631 56.4042 113.756 58.5232C113.756 58.5232 126.561 51.3274 133.978 52.144C141.397 52.9583 137.259 58.3279 149.712 59.0734C141.811 62.1665 137.079 59.2998 133.965 57.0232ZM148.459 53.7682C143.404 53.2534 142.684 50.2713 140.384 47.7395C138.083 45.2078 132.831 45.554 124.976 48.0369C117.121 50.5198 112.007 53.5618 106.179 54.5958C100.349 55.6298 97.5865 53.1025 95.1571 50.1004C94.0769 48.7646 91.9276 48.5295 89.3916 49.0065C86.2199 49.6034 82.4125 51.2054 78.9496 51.9354C77.6049 52.2194 76.2825 52.3326 75 52.3237L75.6867 79.6932L156 84L155.189 53.2534C153.128 53.7881 150.868 54.0144 148.459 53.7682Z" fill="#244B91"/>
<path d="M211.757 34.5894L218.948 40.6788C214.478 45.9891 207.74 49.3581 200.097 49.3581C186.821 49.3581 176 38.929 176 26.0407C176 13.148 186.821 2.65805 200.097 2.65805C207.74 2.65805 214.478 6.08798 218.948 11.4026L211.757 17.4877C209.163 13.7966 204.889 11.4679 200.097 11.4679C192.131 11.4679 185.589 17.2962 185.589 26.0407C185.589 34.6547 192.131 40.6135 200.097 40.6135C204.889 40.6135 209.163 38.2805 211.757 34.5894Z" fill="#244B91"/>
<path d="M250.878 24.1613C248.675 22.2809 245.568 21.1188 242.199 21.1188C235.783 21.1188 231.769 25.9111 231.769 31.1561C231.769 36.4707 235.848 41.263 242.199 41.263C245.629 41.263 248.675 40.1618 250.878 38.2815V24.1613ZM259.884 13.667V48.8411H250.878V46.2469C247.962 48.1926 244.466 49.3591 240.579 49.3591C229.567 49.3591 223.09 40.4839 223.09 31.1561C223.09 21.763 229.567 12.9531 240.579 12.9531C244.271 12.9531 247.896 14.124 250.878 15.8694V13.667H259.884Z" fill="#244B91"/>
<path d="M268.104 48.8386H277.17V0.001351H268.104V48.8386Z" fill="#244B91"/>
<path d="M320.506 13.6681L303.665 48.8378H299.391L282.485 13.6681H291.939L301.528 33.6165L311.047 13.6681H320.506Z" fill="#244B91"/>
<path d="M349.972 24.1613C347.77 22.2809 344.662 21.1188 341.293 21.1188C334.877 21.1188 330.864 25.9111 330.864 31.1561C330.864 36.4707 334.942 41.263 341.293 41.263C344.723 41.263 347.77 40.1618 349.972 38.2815V24.1613ZM358.974 13.667V48.8411H349.972V46.2469C347.056 48.1926 343.561 49.3591 339.674 49.3591C328.662 49.3591 322.185 40.4839 322.185 31.1561C322.185 21.763 328.662 12.9531 339.674 12.9531C343.365 12.9531 346.991 14.124 349.972 15.8694V13.667H358.974Z" fill="#244B91"/>
<path d="M393.499 38.2166V24.0965C391.361 22.2814 388.315 21.1149 384.885 21.1149C378.86 21.1149 374.39 25.4545 374.39 31.2218C374.39 37.1807 378.86 41.2592 384.885 41.2592C388.249 41.2592 391.361 40.097 393.499 38.2166ZM402.565 0V48.8416H393.499V46.7C390.648 48.3845 386.956 49.4248 383.265 49.4248C373.481 49.4248 365.45 42.0383 365.45 31.2218C365.45 20.2095 373.481 13.0189 383.265 13.0189C387.022 13.0189 390.582 14.0548 393.499 15.674V0H402.565Z" fill="#244B91"/>
<path d="M438.448 31.2209C438.448 25.6495 433.847 21.1183 428.084 21.1183C422.382 21.1183 417.72 25.6495 417.72 31.2209C417.72 36.7271 422.382 41.2626 428.084 41.2626C433.847 41.2626 438.448 36.7271 438.448 31.2209ZM447.323 31.2209C447.323 41.2626 438.709 49.3586 428.084 49.3586C417.463 49.3586 408.845 41.2626 408.845 31.2209C408.845 21.1183 417.463 13.0179 428.084 13.0179C438.709 13.0179 447.323 21.1183 447.323 31.2209Z" fill="#244B91"/>
<path d="M455.027 39.3182C459.367 41.1985 462.671 42.1692 467.076 42.1692C471.219 42.1692 472.839 40.6153 472.839 38.8002C472.839 36.7936 470.832 35.8839 465.391 34.7217C457.813 33.0372 452.307 30.5736 452.307 23.7703C452.307 17.4241 457.552 13.0192 465.713 13.0192C471.219 13.0192 475.624 14.3163 479.446 15.8702L476.464 22.4776C473.034 21.1805 469.017 20.2098 465.522 20.2098C462.087 20.2098 460.338 21.4417 460.338 23.3177C460.338 25.2633 462.475 26.1687 468.112 27.3352C476.273 29.0197 481 31.8664 481 38.2822C481 44.9549 475.885 49.3555 466.88 49.3555C460.79 49.3555 456.838 48.5154 451.658 45.9909L455.027 39.3182Z" fill="#244B91"/>
<path d="M190.017 84.1796H176V63.4929H179.214V81.0306H190.017V84.1796Z" fill="#244B91"/>
<path d="M211.467 84.1799H196.59V63.4932H210.918V66.6681H199.803V72.5385H209.307V75.6832H199.803V81.005H211.467V84.1799Z" fill="#244B91"/>
<path d="M235.103 81.0056H239.185C242.848 80.6859 245.794 77.5412 245.794 73.848C245.794 69.8869 242.593 66.6687 238.666 66.6687H235.103V81.0056ZM239.297 84.1805H231.893V63.4938H238.666C244.381 63.4938 249.034 68.1374 249.034 73.848C249.034 79.2864 244.775 83.822 239.336 84.1762L239.297 84.1805Z" fill="#244B91"/>
<path d="M270.848 84.1799H255.972V63.4932H270.3V66.6681H259.185V72.5385H268.688V75.6832H259.185V81.005H270.848V84.1799Z" fill="#244B91"/>
<path d="M280.894 74.6801H285.106C290.052 74.6801 290.052 71.5569 290.052 70.5289C290.052 67.9673 288.596 66.6671 285.732 66.6671H280.894V74.6801ZM280.894 84.1789H277.685V63.4922H285.81C290.509 63.4922 293.313 66.1142 293.313 70.503C293.313 75.1595 290.341 77.829 285.157 77.829H280.894V84.1789Z" fill="#244B91"/>
<path d="M302.842 75.7518H309.175L305.991 68.5855L302.842 75.7518ZM316.367 84.1794H312.885L310.514 78.849H301.486L299.14 84.1794H295.624L304.92 63.4927H307.101L316.367 84.1794Z" fill="#244B91"/>
<path d="M325.045 74.6801H329.309C334.25 74.6801 334.25 71.5569 334.25 70.5289C334.25 67.9673 332.807 66.6671 329.961 66.6671H325.045V74.6801ZM339.127 84.1789H335.119L330.44 77.7945C330.073 77.8161 329.702 77.829 329.334 77.829H325.045V84.1789H321.836V63.4922H330.013C334.712 63.4922 337.516 66.1142 337.516 70.503C337.516 73.5915 336.203 75.8377 333.784 76.9695L339.127 84.1789Z" fill="#244B91"/>
<path d="M353.344 84.1799H350.13V66.6681H343.465V63.4932H360.035V66.6681H353.344V84.1799Z" fill="#244B91"/>
<path d="M381.718 84.1799H366.841V63.4932H381.169V66.6681H370.055V72.5385H379.558V75.6832H370.055V81.005H381.718V84.1799Z" fill="#244B91"/>
<path d="M408.584 84.1799H405.374V70.9014L398.584 82.1108L391.763 70.8884V84.1799H388.554V63.4932H390.955L398.584 75.9985L406.204 63.4932H408.584V84.1799Z" fill="#244B91"/>
<path d="M431.387 84.1799H416.51V63.4932H430.838V66.6681H419.724V72.5385H429.227V75.6832H419.724V81.005H431.387V84.1799Z" fill="#244B91"/>
<path d="M453.235 84.1799L441.434 69.6487V84.1799H438.224V63.4932H440.531L452.306 78.0158V63.4932H455.52V84.1799H453.235Z" fill="#244B91"/>
<path d="M472.309 84.1799H469.095V66.6681H462.43V63.4932H479V66.6681H472.309V84.1799Z" fill="#244B91"/>
<path d="M263.867 61.7106H261.115L263.629 58H267.098L263.867 61.7106Z" fill="#244B91"/>
</svg>
